<svg xmlns="http://www.w3.org/2000/svg" xmlns:xlink="http://www.w3.org/1999/xlink" width="100" zoomAndPan="magnify" viewBox="0 0 75 74.999997" height="100" preserveAspectRatio="xMidYMid meet" version="1.0"><defs><g/><clipPath id="e4bb403a28"><path d="M 24.382812 28.84375 L 49 28.84375 L 49 49 L 24.382812 49 Z M 24.382812 28.84375 " clip-rule="nonzero"/></clipPath><clipPath id="4876381507"><path d="M 1.664062 28 L 23 28 L 23 50 L 1.664062 50 Z M 1.664062 28 " clip-rule="nonzero"/></clipPath><clipPath id="48350ded9b"><path d="M 49.015625 27.960938 L 75 27.960938 L 75 49 L 49.015625 49 Z M 49.015625 27.960938 " clip-rule="nonzero"/></clipPath></defs><g clip-path="url(#e4bb403a28)"><g fill="#d1b490" fill-opacity="1"><g transform="translate(-0.365623, 48.480464)"><g><path d="M -0.234375 0 L -0.03125 -1.140625 L 2.671875 -1.53125 L 5.765625 -19.09375 L 3.203125 -19.5 L 3.40625 -20.625 L 13.234375 -20.625 L 13.03125 -19.5 L 10.3125 -19.09375 L 8.96875 -11.453125 L 16.46875 -11.453125 L 17.8125 -19.09375 L 15.25 -19.5 L 15.4375 -20.625 L 25.296875 -20.625 L 25.109375 -19.5 L 22.359375 -19.09375 L 19.265625 -1.53125 L 21.859375 -1.140625 L 21.65625 0 L 11.796875 0 L 12 -1.140625 L 14.71875 -1.53125 L 16.171875 -9.765625 L 8.65625 -9.765625 L 7.21875 -1.53125 L 9.78125 -1.140625 L 9.578125 0 Z M -0.234375 0 "/></g></g><g transform="translate(24.136083, 48.480464)"><g><path d="M 16.90625 -16.953125 C 16.90625 -16.109375 16.722656 -15.382812 16.359375 -14.78125 C 16.003906 -14.1875 15.503906 -13.660156 14.859375 -13.203125 C 14.222656 -12.753906 13.085938 -12.207031 11.453125 -11.5625 L 16.25 -6.171875 C 17.394531 -7.921875 18.109375 -9.539062 18.390625 -11.03125 L 16.609375 -11.421875 L 16.78125 -12.40625 L 24.125 -12.40625 L 23.953125 -11.421875 L 22.03125 -11.03125 C 21.550781 -9.914062 20.941406 -8.742188 20.203125 -7.515625 C 19.460938 -6.296875 18.679688 -5.238281 17.859375 -4.34375 L 20.515625 -1.359375 L 22.390625 -0.96875 L 22.21875 0 L 16.625 0 L 15.078125 -1.84375 C 13.867188 -1.03125 12.707031 -0.46875 11.59375 -0.15625 C 10.476562 0.15625 9.253906 0.3125 7.921875 0.3125 C 5.597656 0.3125 3.820312 -0.164062 2.59375 -1.125 C 1.375 -2.082031 0.765625 -3.488281 0.765625 -5.34375 C 0.765625 -6.363281 0.992188 -7.242188 1.453125 -7.984375 C 1.910156 -8.734375 2.523438 -9.378906 3.296875 -9.921875 C 4.078125 -10.460938 5.269531 -11.015625 6.875 -11.578125 C 5.988281 -12.972656 5.546875 -14.429688 5.546875 -15.953125 C 5.546875 -17.460938 6.070312 -18.671875 7.125 -19.578125 C 8.1875 -20.484375 9.640625 -20.9375 11.484375 -20.9375 C 12.617188 -20.9375 13.585938 -20.769531 14.390625 -20.4375 C 15.203125 -20.101562 15.820312 -19.632812 16.25 -19.03125 C 16.6875 -18.425781 16.90625 -17.734375 16.90625 -16.953125 Z M 7.953125 -10.125 C 7.066406 -9.664062 6.429688 -9.238281 6.046875 -8.84375 C 5.671875 -8.445312 5.378906 -7.972656 5.171875 -7.421875 C 4.960938 -6.867188 4.859375 -6.21875 4.859375 -5.46875 C 4.859375 -4.300781 5.179688 -3.375 5.828125 -2.6875 C 6.472656 -2 7.332031 -1.65625 8.40625 -1.65625 C 10.425781 -1.65625 12.164062 -2.269531 13.625 -3.5 Z M 9.15625 -16.46875 C 9.15625 -15.3125 9.5625 -14.144531 10.375 -12.96875 C 11.582031 -13.519531 12.40625 -14.085938 12.84375 -14.671875 C 13.289062 -15.253906 13.515625 -15.941406 13.515625 -16.734375 C 13.515625 -17.597656 13.320312 -18.265625 12.9375 -18.734375 C 12.550781 -19.203125 12.066406 -19.4375 11.484375 -19.4375 C 10.722656 -19.4375 10.144531 -19.171875 9.75 -18.640625 C 9.351562 -18.109375 9.15625 -17.382812 9.15625 -16.46875 Z M 9.15625 -16.46875 "/></g></g></g></g><g clip-path="url(#4876381507)"><g fill="#d1b490" fill-opacity="1"><g transform="translate(0.869361, 49.00574)"><g><path d="M 10.3125 0.3125 C 7.382812 0.3125 5.113281 -0.441406 3.5 -1.953125 C 1.882812 -3.472656 1.078125 -5.546875 1.078125 -8.171875 C 1.078125 -10.691406 1.609375 -12.910156 2.671875 -14.828125 C 3.742188 -16.753906 5.269531 -18.238281 7.25 -19.28125 C 9.226562 -20.332031 11.488281 -20.859375 14.03125 -20.859375 C 16.34375 -20.859375 18.765625 -20.59375 21.296875 -20.0625 L 20.484375 -14.875 L 19.203125 -14.875 L 19.203125 -17.859375 C 18.640625 -18.296875 17.96875 -18.632812 17.1875 -18.875 C 16.40625 -19.113281 15.582031 -19.234375 14.71875 -19.234375 C 13.03125 -19.234375 11.507812 -18.757812 10.15625 -17.8125 C 8.8125 -16.875 7.765625 -15.546875 7.015625 -13.828125 C 6.265625 -12.117188 5.890625 -10.1875 5.890625 -8.03125 C 5.890625 -5.90625 6.359375 -4.25 7.296875 -3.0625 C 8.242188 -1.875 9.578125 -1.28125 11.296875 -1.28125 C 12.296875 -1.28125 13.300781 -1.425781 14.3125 -1.71875 C 15.332031 -2.007812 16.15625 -2.378906 16.78125 -2.828125 L 17.96875 -6.21875 L 19.265625 -6.21875 L 18.25 -0.984375 C 17.09375 -0.609375 15.8125 -0.296875 14.40625 -0.046875 C 13.007812 0.191406 11.644531 0.3125 10.3125 0.3125 Z M 10.3125 0.3125 "/></g></g></g></g><g clip-path="url(#48350ded9b)"><g fill="#d1b490" fill-opacity="1"><g transform="translate(49.563252, 48.102047)"><g><path d="M -0.234375 0 L -0.03125 -1.140625 L 2.671875 -1.53125 L 5.765625 -19.09375 L 3.203125 -19.5 L 3.40625 -20.625 L 13.234375 -20.625 L 13.03125 -19.5 L 10.3125 -19.09375 L 8.96875 -11.453125 L 16.46875 -11.453125 L 17.8125 -19.09375 L 15.25 -19.5 L 15.4375 -20.625 L 25.296875 -20.625 L 25.109375 -19.5 L 22.359375 -19.09375 L 19.265625 -1.53125 L 21.859375 -1.140625 L 21.65625 0 L 11.796875 0 L 12 -1.140625 L 14.71875 -1.53125 L 16.171875 -9.765625 L 8.65625 -9.765625 L 7.21875 -1.53125 L 9.78125 -1.140625 L 9.578125 0 Z M -0.234375 0 "/></g></g><g transform="translate(74.064959, 48.102047)"><g><path d="M 16.90625 -16.953125 C 16.90625 -16.109375 16.722656 -15.382812 16.359375 -14.78125 C 16.003906 -14.1875 15.503906 -13.660156 14.859375 -13.203125 C 14.222656 -12.753906 13.085938 -12.207031 11.453125 -11.5625 L 16.25 -6.171875 C 17.394531 -7.921875 18.109375 -9.539062 18.390625 -11.03125 L 16.609375 -11.421875 L 16.78125 -12.40625 L 24.125 -12.40625 L 23.953125 -11.421875 L 22.03125 -11.03125 C 21.550781 -9.914062 20.941406 -8.742188 20.203125 -7.515625 C 19.460938 -6.296875 18.679688 -5.238281 17.859375 -4.34375 L 20.515625 -1.359375 L 22.390625 -0.96875 L 22.21875 0 L 16.625 0 L 15.078125 -1.84375 C 13.867188 -1.03125 12.707031 -0.46875 11.59375 -0.15625 C 10.476562 0.15625 9.253906 0.3125 7.921875 0.3125 C 5.597656 0.3125 3.820312 -0.164062 2.59375 -1.125 C 1.375 -2.082031 0.765625 -3.488281 0.765625 -5.34375 C 0.765625 -6.363281 0.992188 -7.242188 1.453125 -7.984375 C 1.910156 -8.734375 2.523438 -9.378906 3.296875 -9.921875 C 4.078125 -10.460938 5.269531 -11.015625 6.875 -11.578125 C 5.988281 -12.972656 5.546875 -14.429688 5.546875 -15.953125 C 5.546875 -17.460938 6.070312 -18.671875 7.125 -19.578125 C 8.1875 -20.484375 9.640625 -20.9375 11.484375 -20.9375 C 12.617188 -20.9375 13.585938 -20.769531 14.390625 -20.4375 C 15.203125 -20.101562 15.820312 -19.632812 16.25 -19.03125 C 16.6875 -18.425781 16.90625 -17.734375 16.90625 -16.953125 Z M 7.953125 -10.125 C 7.066406 -9.664062 6.429688 -9.238281 6.046875 -8.84375 C 5.671875 -8.445312 5.378906 -7.972656 5.171875 -7.421875 C 4.960938 -6.867188 4.859375 -6.21875 4.859375 -5.46875 C 4.859375 -4.300781 5.179688 -3.375 5.828125 -2.6875 C 6.472656 -2 7.332031 -1.65625 8.40625 -1.65625 C 10.425781 -1.65625 12.164062 -2.269531 13.625 -3.5 Z M 9.15625 -16.46875 C 9.15625 -15.3125 9.5625 -14.144531 10.375 -12.96875 C 11.582031 -13.519531 12.40625 -14.085938 12.84375 -14.671875 C 13.289062 -15.253906 13.515625 -15.941406 13.515625 -16.734375 C 13.515625 -17.597656 13.320312 -18.265625 12.9375 -18.734375 C 12.550781 -19.203125 12.066406 -19.4375 11.484375 -19.4375 C 10.722656 -19.4375 10.144531 -19.171875 9.75 -18.640625 C 9.351562 -18.109375 9.15625 -17.382812 9.15625 -16.46875 Z M 9.15625 -16.46875 "/></g></g></g></g></svg>